<svg id="SvgjsSvg1000" xmlns="http://www.w3.org/2000/svg" version="1.1" xmlns:xlink="http://www.w3.org/1999/xlink" xmlns:svgjs="http://svgjs.com/svgjs" width="794.140625" height="1358.421875"><defs id="SvgjsDefs1001"><marker id="SvgjsMarker1015" markerWidth="14" markerHeight="10" refX="10" refY="5" viewBox="0 0 14 10" orient="auto" markerUnits="userSpaceOnUse" stroke-dasharray="0,0"><path id="SvgjsPath1016" d="M0 0L14 5L0 10L0 0 " fill="#323232" stroke="#323232" stroke-width="1"></path></marker><marker id="SvgjsMarker1043" markerWidth="14" markerHeight="10" refX="10" refY="5" viewBox="0 0 14 10" orient="auto" markerUnits="userSpaceOnUse" stroke-dasharray="0,0"><path id="SvgjsPath1044" d="M0 0L14 5L0 10L0 0 " fill="#323232" stroke="#323232" stroke-width="1"></path></marker><marker id="SvgjsMarker1047" markerWidth="14" markerHeight="10" refX="10" refY="5" viewBox="0 0 14 10" orient="auto" markerUnits="userSpaceOnUse" stroke-dasharray="0,0"><path id="SvgjsPath1048" d="M0 0L14 5L0 10L0 0 " fill="#323232" stroke="#323232" stroke-width="1"></path></marker><marker id="SvgjsMarker1063" markerWidth="14" markerHeight="10" refX="10" refY="5" viewBox="0 0 14 10" orient="auto" markerUnits="userSpaceOnUse" stroke-dasharray="0,0"><path id="SvgjsPath1064" d="M0 0L14 5L0 10L0 0 " fill="#323232" stroke="#323232" stroke-width="1"></path></marker><marker id="SvgjsMarker1073" markerWidth="14" markerHeight="10" refX="10" refY="5" viewBox="0 0 14 10" orient="auto" markerUnits="userSpaceOnUse" stroke-dasharray="0,0"><path id="SvgjsPath1074" d="M0 0L14 5L0 10L0 0 " fill="#323232" stroke="#323232" stroke-width="1"></path></marker><marker id="SvgjsMarker1083" markerWidth="14" markerHeight="10" refX="10" refY="5" viewBox="0 0 14 10" orient="auto" markerUnits="userSpaceOnUse" stroke-dasharray="0,0"><path id="SvgjsPath1084" d="M0 0L14 5L0 10L0 0 " fill="#323232" stroke="#323232" stroke-width="1"></path></marker><marker id="SvgjsMarker1087" markerWidth="14" markerHeight="10" refX="10" refY="5" viewBox="0 0 14 10" orient="auto" markerUnits="userSpaceOnUse" stroke-dasharray="0,0"><path id="SvgjsPath1088" d="M0 0L14 5L0 10L0 0 " fill="#323232" stroke="#323232" stroke-width="1"></path></marker><marker id="SvgjsMarker1097" markerWidth="14" markerHeight="10" refX="10" refY="5" viewBox="0 0 14 10" orient="auto" markerUnits="userSpaceOnUse" stroke-dasharray="0,0"><path id="SvgjsPath1098" d="M0 0L14 5L0 10L0 0 " fill="#323232" stroke="#323232" stroke-width="1"></path></marker><marker id="SvgjsMarker1101" markerWidth="14" markerHeight="10" refX="10" refY="5" viewBox="0 0 14 10" orient="auto" markerUnits="userSpaceOnUse" stroke-dasharray="0,0"><path id="SvgjsPath1102" d="M0 0L14 5L0 10L0 0 " fill="#323232" stroke="#323232" stroke-width="1"></path></marker><marker id="SvgjsMarker1115" markerWidth="14" markerHeight="10" refX="10" refY="5" viewBox="0 0 14 10" orient="auto" markerUnits="userSpaceOnUse" stroke-dasharray="0,0"><path id="SvgjsPath1116" d="M0 0L14 5L0 10L0 0 " fill="#323232" stroke="#323232" stroke-width="1"></path></marker><marker id="SvgjsMarker1119" markerWidth="14" markerHeight="10" refX="10" refY="5" viewBox="0 0 14 10" orient="auto" markerUnits="userSpaceOnUse" stroke-dasharray="0,0"><path id="SvgjsPath1120" d="M0 0L14 5L0 10L0 0 " fill="#323232" stroke="#323232" stroke-width="1"></path></marker><marker id="SvgjsMarker1129" markerWidth="14" markerHeight="10" refX="10" refY="5" viewBox="0 0 14 10" orient="auto" markerUnits="userSpaceOnUse" stroke-dasharray="0,0"><path id="SvgjsPath1130" d="M0 0L14 5L0 10L0 0 " fill="#323232" stroke="#323232" stroke-width="1"></path></marker><marker id="SvgjsMarker1139" markerWidth="14" markerHeight="10" refX="10" refY="5" viewBox="0 0 14 10" orient="auto" markerUnits="userSpaceOnUse" stroke-dasharray="0,0"><path id="SvgjsPath1140" d="M0 0L14 5L0 10L0 0 " fill="#323232" stroke="#323232" stroke-width="1"></path></marker><marker id="SvgjsMarker1143" markerWidth="14" markerHeight="10" refX="10" refY="5" viewBox="0 0 14 10" orient="auto" markerUnits="userSpaceOnUse" stroke-dasharray="0,0"><path id="SvgjsPath1144" d="M0 0L14 5L0 10L0 0 " fill="#323232" stroke="#323232" stroke-width="1"></path></marker><marker id="SvgjsMarker1153" markerWidth="14" markerHeight="10" refX="10" refY="5" viewBox="0 0 14 10" orient="auto" markerUnits="userSpaceOnUse" stroke-dasharray="0,0"><path id="SvgjsPath1154" d="M0 0L14 5L0 10L0 0 " fill="#323232" stroke="#323232" stroke-width="1"></path></marker><marker id="SvgjsMarker1163" markerWidth="14" markerHeight="10" refX="10" refY="5" viewBox="0 0 14 10" orient="auto" markerUnits="userSpaceOnUse" stroke-dasharray="0,0"><path id="SvgjsPath1164" d="M0 0L14 5L0 10L0 0 " fill="#323232" stroke="#323232" stroke-width="1"></path></marker><marker id="SvgjsMarker1173" markerWidth="14" markerHeight="10" refX="10" refY="5" viewBox="0 0 14 10" orient="auto" markerUnits="userSpaceOnUse" stroke-dasharray="0,0"><path id="SvgjsPath1174" d="M0 0L14 5L0 10L0 0 " fill="#323232" stroke="#323232" stroke-width="1"></path></marker><marker id="SvgjsMarker1183" markerWidth="14" markerHeight="10" refX="10" refY="5" viewBox="0 0 14 10" orient="auto" markerUnits="userSpaceOnUse" stroke-dasharray="0,0"><path id="SvgjsPath1184" d="M0 0L14 5L0 10L0 0 " fill="#323232" stroke="#323232" stroke-width="1"></path></marker><marker id="SvgjsMarker1187" markerWidth="14" markerHeight="10" refX="10" refY="5" viewBox="0 0 14 10" orient="auto" markerUnits="userSpaceOnUse" stroke-dasharray="0,0"><path id="SvgjsPath1188" d="M0 0L14 5L0 10L0 0 " fill="#323232" stroke="#323232" stroke-width="1"></path></marker><marker id="SvgjsMarker1191" markerWidth="14" markerHeight="10" refX="10" refY="5" viewBox="0 0 14 10" orient="auto" markerUnits="userSpaceOnUse" stroke-dasharray="0,0"><path id="SvgjsPath1192" d="M0 0L14 5L0 10L0 0 " fill="#323232" stroke="#323232" stroke-width="1"></path></marker></defs><g id="SvgjsG1007" transform="translate(164.77982954545507,25.01420454545459)"><path id="SvgjsPath1008" d="M0 0L100 0L100 70L0 70Z " stroke="rgba(50,50,50,1)" stroke-width="2" fill-opacity="1" fill="#ffffff"></path><g id="SvgjsG1009"><text id="SvgjsText1010" font-family="微软雅黑" text-anchor="middle" font-size="13px" width="80px" fill="#323232" font-weight="400" align="middle" lineHeight="125%" font-style="" opacity="1" y="24.375" transform="rotate(0)"><tspan id="SvgjsTspan1011" dy="16" x="50"><tspan id="SvgjsTspan1012" style="text-decoration:;">Generator</tspan></tspan></text></g></g><g id="SvgjsG1013"><path id="SvgjsPath1014" d="M214.77982954545507 96.01420454545459L214.77982954545507 115.12784090909093L214.77982954545507 115.12784090909093L214.77982954545507 131.64147727272726 " stroke="#323232" stroke-width="2" fill="none" marker-end="url(#SvgjsMarker1015)"></path></g><g id="SvgjsG1017" transform="translate(151.14346590909133,135.24147727272725)"><path id="SvgjsPath1018" d="M0 0L127.27272727272793 0L127.27272727272793 69.54545454545453L0 69.54545454545453L0 0ZM20 0L20 69.54545454545453M107.27272727272793 0L107.27272727272793 69.54545454545453 " stroke="rgba(50,50,50,1)" stroke-width="2" fill-opacity="1" fill="#ffffff"></path><g id="SvgjsG1019"><text id="SvgjsText1020" font-family="微软雅黑" text-anchor="middle" font-size="13px" width="88px" fill="#323232" font-weight="400" align="middle" lineHeight="125%" font-style="" opacity="1" y="24.147727272727266" transform="rotate(0)"><tspan id="SvgjsTspan1021" dy="16" x="64"><tspan id="SvgjsTspan1022" style="text-decoration:;">get_source()</tspan></tspan></text></g></g><g id="SvgjsG1023" transform="translate(164.77982954545547,465.46874999999955)"><path id="SvgjsPath1024" d="M0 0L100 0L100 70L0 70L0 0ZM16.666666666666668 0L16.666666666666668 70M83.33333333333333 0L83.33333333333333 70 " stroke="rgba(50,50,50,1)" stroke-width="2" fill-opacity="1" fill="#ffffff"></path><g id="SvgjsG1025"><text id="SvgjsText1026" font-family="微软雅黑" text-anchor="middle" font-size="13px" width="67px" fill="#323232" font-weight="400" align="middle" lineHeight="125%" font-style="" opacity="1" y="24.375" transform="rotate(0)"><tspan id="SvgjsTspan1027" dy="16" x="50.16666666666667"><tspan id="SvgjsTspan1028" style="text-decoration:;">generate()</tspan></tspan></text></g></g><g id="SvgjsG1029" transform="translate(164.7798295454553,245.0142045454544)"><path id="SvgjsPath1030" d="M0 0L100 0L100 70L0 70L0 0ZM16.666666666666668 0L16.666666666666668 70M83.33333333333333 0L83.33333333333333 70 " stroke="rgba(50,50,50,1)" stroke-width="2" fill-opacity="1" fill="#ffffff"></path><g id="SvgjsG1031"><text id="SvgjsText1032" font-family="微软雅黑" text-anchor="middle" font-size="13px" width="67px" fill="#323232" font-weight="400" align="middle" lineHeight="125%" font-style="" opacity="1" y="24.375" transform="rotate(0)"><tspan id="SvgjsTspan1033" dy="16" x="50.16666666666667"><tspan id="SvgjsTspan1034" style="text-decoration:;">source()</tspan></tspan></text></g></g><g id="SvgjsG1035" transform="translate(164.77982954545536,355.24147727272697)"><path id="SvgjsPath1036" d="M23.333333333333332 0L100 0L76.66666666666667 70L0 70L23.333333333333332 0Z " stroke="rgba(50,50,50,1)" stroke-width="2" fill-opacity="1" fill="#ffffff"></path><g id="SvgjsG1037"><text id="SvgjsText1038" font-family="微软雅黑" text-anchor="middle" font-size="13px" width="70px" fill="#323232" font-weight="400" align="middle" lineHeight="125%" font-style="" opacity="1" y="24.375" transform="rotate(0)"><tspan id="SvgjsTspan1039" dy="16" x="50"><tspan id="SvgjsTspan1040" style="text-decoration:;">source</tspan></tspan></text></g></g><g id="SvgjsG1041"><path id="SvgjsPath1042" d="M214.7798295454553 205.78693181818176L214.7798295454553 224.90056818181807L214.7798295454553 224.90056818181807L214.7798295454553 241.41420454545437 " stroke="#323232" stroke-width="2" fill="none" marker-end="url(#SvgjsMarker1043)"></path></g><g id="SvgjsG1045"><path id="SvgjsPath1046" d="M214.7798295454553 316.0142045454544L214.7798295454553 335.12784090909065L214.77982954545536 335.12784090909065L214.77982954545536 351.64147727272695 " stroke="#323232" stroke-width="2" fill="none" marker-end="url(#SvgjsMarker1047)"></path></g><g id="SvgjsG1049" transform="translate(164.77982954545575,682.5142045454528)"><path id="SvgjsPath1050" d="M0 0L100 0L100 70L0 70L0 0ZM16.666666666666668 0L16.666666666666668 70M83.33333333333333 0L83.33333333333333 70 " stroke="rgba(50,50,50,1)" stroke-width="2" fill-opacity="1" fill="#ffffff"></path><g id="SvgjsG1051"><text id="SvgjsText1052" font-family="微软雅黑" text-anchor="middle" font-size="13px" width="67px" fill="#323232" font-weight="400" align="middle" lineHeight="125%" font-style="" opacity="1" y="24.375" transform="rotate(0)"><tspan id="SvgjsTspan1053" dy="16" x="50.16666666666667"><tspan id="SvgjsTspan1054" style="text-decoration:;">make()</tspan></tspan></text></g></g><g id="SvgjsG1055" transform="translate(164.77982954545575,792.7414772727253)"><path id="SvgjsPath1056" d="M0 0L100 0L100 70L0 70Z " stroke="rgba(50,50,50,1)" stroke-width="2" fill-opacity="1" fill="#ffffff"></path><g id="SvgjsG1057"><text id="SvgjsText1058" font-family="微软雅黑" text-anchor="middle" font-size="13px" width="80px" fill="#323232" font-weight="400" align="middle" lineHeight="125%" font-style="" opacity="1" y="24.375" transform="rotate(0)"><tspan id="SvgjsTspan1059" dy="16" x="50"><tspan id="SvgjsTspan1060" style="text-decoration:;">Chooser</tspan></tspan></text></g></g><g id="SvgjsG1061"><path id="SvgjsPath1062" d="M214.77982954545575 753.5142045454528L214.77982954545575 772.6278409090891L214.77982954545575 772.6278409090891L214.77982954545575 789.1414772727253 " stroke="#323232" stroke-width="2" fill="none" marker-end="url(#SvgjsMarker1063)"></path></g><g id="SvgjsG1065" transform="translate(112.50710227272901,902.9687499999983)"><path id="SvgjsPath1066" d="M0 0L204.5454545454533 0L204.5454545454533 73.1818181818162L0 73.1818181818162L0 0ZM20 0L20 73.1818181818162M184.5454545454533 0L184.5454545454533 73.1818181818162 " stroke="rgba(50,50,50,1)" stroke-width="2" fill-opacity="1" fill="#ffffff"></path><g id="SvgjsG1067"><text id="SvgjsText1068" font-family="微软雅黑" text-anchor="middle" font-size="13px" width="165px" fill="#323232" font-weight="400" align="middle" lineHeight="125%" font-style="" opacity="1" y="25.9659090909081" transform="rotate(0)"><tspan id="SvgjsTspan1069" dy="16" x="102.5"><tspan id="SvgjsTspan1070" style="text-decoration:;">choice() / choices()</tspan></tspan></text></g></g><g id="SvgjsG1071"><path id="SvgjsPath1072" d="M214.77982954545575 863.7414772727253L214.77982954545575 882.8551136363616L214.77982954545575 882.8551136363616L214.77982954545575 899.3687499999983 " stroke="#323232" stroke-width="2" fill="none" marker-end="url(#SvgjsMarker1073)"></path></g><g id="SvgjsG1075" transform="translate(164.77982954545564,1016.3778409090871)"><path id="SvgjsPath1076" d="M23.333333333333332 0L100 0L76.66666666666667 70L0 70L23.333333333333332 0Z " stroke="rgba(50,50,50,1)" stroke-width="2" fill-opacity="1" fill="#ffffff"></path><g id="SvgjsG1077"><text id="SvgjsText1078" font-family="微软雅黑" text-anchor="middle" font-size="13px" width="70px" fill="#323232" font-weight="400" align="middle" lineHeight="125%" font-style="" opacity="1" y="24.375" transform="rotate(0)"><tspan id="SvgjsTspan1079" dy="16" x="50"><tspan id="SvgjsTspan1080" style="text-decoration:;">output</tspan></tspan></text></g></g><g id="SvgjsG1081"><path id="SvgjsPath1082" d="M214.77982954545564 977.1505681818148L214.77982954545564 996.2642045454511L214.77982954545564 996.2642045454511L214.77982954545564 1012.7778409090872 " stroke="#323232" stroke-width="2" fill="none" marker-end="url(#SvgjsMarker1083)"></path></g><g id="SvgjsG1085"><path id="SvgjsPath1086" d="M214.77982954545536 426.24147727272697L214.77982954545536 445.3551136363633L214.77982954545536 445.3551136363633L214.77982954545536 461.8687499999995 " stroke="#323232" stroke-width="2" fill="none" marker-end="url(#SvgjsMarker1087)"></path></g><g id="SvgjsG1089" transform="translate(130.46164772727423,575.6960227272721)"><path id="SvgjsPath1090" d="M0 33.29545454545422L84.31818181818136 0L168.63636363636272 33.29545454545422L84.31818181818136 66.59090909090844L0 33.29545454545422Z " stroke="rgba(50,50,50,1)" stroke-width="2" fill-opacity="1" fill="#ffffff"></path><g id="SvgjsG1091"><text id="SvgjsText1092" font-family="微软雅黑" text-anchor="middle" font-size="13px" width="149px" fill="#323232" font-weight="400" align="middle" lineHeight="125%" font-style="" opacity="1" y="22.67045454545422" transform="rotate(0)"><tspan id="SvgjsTspan1093" dy="16" x="84.5"><tspan id="SvgjsTspan1094" style="text-decoration:;">Associated?</tspan></tspan></text></g></g><g id="SvgjsG1095"><path id="SvgjsPath1096" d="M214.77982954545547 536.4687499999995L214.77982954545547 555.5823863636358L214.77982954545547 555.5823863636358L214.77982954545547 572.096022727272 " stroke="#323232" stroke-width="2" fill="none" marker-end="url(#SvgjsMarker1097)"></path></g><g id="SvgjsG1099"><path id="SvgjsPath1100" d="M214.77982954545558 643.2869318181805L214.77982954545558 662.4005681818167L214.7798295454558 662.4005681818167L214.7798295454558 678.9142045454528 " stroke="#323232" stroke-width="2" fill="none" marker-end="url(#SvgjsMarker1101)"></path><rect id="SvgjsRect1103" width="32" height="16" x="198.77982954545558" y="653.1005681818168" fill="#ffffff"></rect><text id="SvgjsText1104" font-family="微软雅黑" text-anchor="middle" font-size="13px" width="32px" fill="#323232" font-weight="400" align="top" lineHeight="16px" font-style="" opacity="1" y="650.4755681818168" transform="rotate(0)"><tspan id="SvgjsTspan1105" dy="16" x="214.77982954545558"><tspan id="SvgjsTspan1106" style="text-decoration:;">False</tspan></tspan></text></g><g id="SvgjsG1107" transform="translate(364.7798295454545,682.5142045454528)"><path id="SvgjsPath1108" d="M0 0L100 0L100 70L0 70Z " stroke="rgba(50,50,50,1)" stroke-width="2" fill-opacity="1" fill="#ffffff"></path><g id="SvgjsG1109"><text id="SvgjsText1110" font-family="微软雅黑" text-anchor="middle" font-size="13px" width="80px" fill="#323232" font-weight="400" align="middle" lineHeight="125%" font-style="" opacity="1" y="24.375" transform="rotate(0)"><tspan id="SvgjsTspan1111" dy="16" x="50"><tspan id="SvgjsTspan1112" style="text-decoration:;">Association</tspan></tspan></text></g></g><g id="SvgjsG1113"><path id="SvgjsPath1114" d="M300.09801136363694 608.9914772727263L414.7798295454545 608.9914772727263L414.7798295454545 678.9142045454528 " stroke="#323232" stroke-width="2" fill="none" marker-end="url(#SvgjsMarker1115)"></path></g><g id="SvgjsG1117"><path id="SvgjsPath1118" d="M265.7798295454551 60.01420454545459L414.7798295454545 60.01420454545459L414.7798295454545 678.9142045454528 " stroke="#323232" stroke-width="2" fill="none" marker-end="url(#SvgjsMarker1119)"></path></g><g id="SvgjsG1121" transform="translate(531.1434659090909,682.5142045454528)"><path id="SvgjsPath1122" d="M23.333333333333332 0L238.18181818181813 0L214.8484848484848 70L0 70L23.333333333333332 0Z " stroke="rgba(50,50,50,1)" stroke-width="2" fill-opacity="1" fill="#ffffff"></path><g id="SvgjsG1123"><text id="SvgjsText1124" font-family="微软雅黑" text-anchor="middle" font-size="13px" width="167px" fill="#323232" font-weight="400" align="middle" lineHeight="125%" font-style="" opacity="1" y="24.375" transform="rotate(0)"><tspan id="SvgjsTspan1125" dy="16" x="119.22727272727272"><tspan id="SvgjsTspan1126" style="text-decoration:;">The other generator output</tspan></tspan></text></g></g><g id="SvgjsG1127"><path id="SvgjsPath1128" d="M541.8101325757575 717.5142045454528L503.794981060606 717.5142045454528L503.794981060606 717.5142045454528L468.3798295454545 717.5142045454528 " stroke="#323232" stroke-width="2" fill="none" marker-end="url(#SvgjsMarker1129)"></path></g><g id="SvgjsG1131" transform="translate(357.05255681818176,792.7414772727253)"><path id="SvgjsPath1132" d="M0 0L115.4545454545455 0L115.4545454545455 70L0 70L0 0ZM19.24242424242425 0L19.24242424242425 70M96.21212121212125 0L96.21212121212125 70 " stroke="rgba(50,50,50,1)" stroke-width="2" fill-opacity="1" fill="#ffffff"></path><g id="SvgjsG1133"><text id="SvgjsText1134" font-family="微软雅黑" text-anchor="middle" font-size="13px" width="77px" fill="#323232" font-weight="400" align="middle" lineHeight="125%" font-style="" opacity="1" y="24.375" transform="rotate(0)"><tspan id="SvgjsTspan1135" dy="16" x="57.74242424242425"><tspan id="SvgjsTspan1136" style="text-decoration:;">associate()</tspan></tspan></text></g></g><g id="SvgjsG1137"><path id="SvgjsPath1138" d="M414.7798295454545 753.5142045454528L414.7798295454545 772.6278409090891L414.7798295454545 772.6278409090891L414.7798295454545 789.1414772727253 " stroke="#323232" stroke-width="2" fill="none" marker-end="url(#SvgjsMarker1139)"></path></g><g id="SvgjsG1141"><path id="SvgjsPath1142" d="M414.7798295454545 863.7414772727253L414.7798295454545 1051.3778409090871L256.71316287878903 1051.3778409090871 " stroke="#323232" stroke-width="2" fill="none" marker-end="url(#SvgjsMarker1143)"></path></g><g id="SvgjsG1145" transform="translate(145.68892045454714,1126.6051136363599)"><path id="SvgjsPath1146" d="M0 0L138.181818181817 0L138.181818181817 66.59090909090514L0 66.59090909090514Z " stroke="rgba(50,50,50,1)" stroke-width="2" fill-opacity="1" fill="#ffffff"></path><g id="SvgjsG1147"><text id="SvgjsText1148" font-family="微软雅黑" text-anchor="middle" font-size="13px" width="119px" fill="#323232" font-weight="400" align="middle" lineHeight="125%" font-style="" opacity="1" y="22.67045454545257" transform="rotate(0)"><tspan id="SvgjsTspan1149" dy="16" x="69.5"><tspan id="SvgjsTspan1150" style="text-decoration:;">GeneratorOutput</tspan></tspan></text></g></g><g id="SvgjsG1151"><path id="SvgjsPath1152" d="M214.77982954545564 1087.3778409090871L214.77982954545564 1106.4914772727234L214.77982954545564 1106.4914772727234L214.77982954545564 1123.00511363636 " stroke="#323232" stroke-width="2" fill="none" marker-end="url(#SvgjsMarker1153)"></path></g><g id="SvgjsG1155" transform="translate(25.007102272728616,1233.4232954545378)"><path id="SvgjsPath1156" d="M15 0L88.33333333333333 0C103.18181818181819 0 103.18181818181819 70 88.33333333333333 70L15 70C-5 70 -5 0 15 0ZM88.33333333333333 0C73.75 0 73.75 70 88.33333333333333 70C73.75 70 73.75 0 88.33333333333333 0 " stroke="rgba(50,50,50,1)" stroke-width="2" fill-opacity="1" fill="#ffffff"></path><g id="SvgjsG1157"><text id="SvgjsText1158" font-family="微软雅黑" text-anchor="middle" font-size="13px" width="80px" fill="#323232" font-weight="400" align="middle" lineHeight="125%" font-style="" opacity="1" y="24.375" transform="rotate(0)"><tspan id="SvgjsTspan1159" dy="16" x="40"><tspan id="SvgjsTspan1160" style="text-decoration:;">save()</tspan></tspan></text></g></g><g id="SvgjsG1161"><path id="SvgjsPath1162" d="M214.77982954545564 1194.196022727265L214.77982954545564 1213.3096590909013L75.00710227272873 1213.3096590909013L75.00710227272873 1229.8232954545379 " stroke="#323232" stroke-width="2" fill="none" marker-end="url(#SvgjsMarker1163)"></path></g><g id="SvgjsG1165" transform="translate(164.77982954545547,1233.4232954545378)"><path id="SvgjsPath1166" d="M83.33333333333333 0L16.666666666666668 0L0 35L16.666666666666668 70L83.33333333333333 70Q100 70 100 35Q100 0 83.33333333333333 0Z " stroke="rgba(50,50,50,1)" stroke-width="2" fill-opacity="1" fill="#ffffff"></path><g id="SvgjsG1167"><text id="SvgjsText1168" font-family="微软雅黑" text-anchor="middle" font-size="13px" width="80px" fill="#323232" font-weight="400" align="middle" lineHeight="125%" font-style="" opacity="1" y="24.375" transform="rotate(0)"><tspan id="SvgjsTspan1169" dy="16" x="50"><tspan id="SvgjsTspan1170" style="text-decoration:;">show()</tspan></tspan></text></g></g><g id="SvgjsG1171"><path id="SvgjsPath1172" d="M214.77982954545564 1194.196022727265L214.77982954545564 1213.3096590909013L214.77982954545547 1213.3096590909013L214.77982954545547 1229.8232954545379 " stroke="#323232" stroke-width="2" fill="none" marker-end="url(#SvgjsMarker1173)"></path></g><g id="SvgjsG1175" transform="translate(304.5525568181823,1233.4232954545378)"><path id="SvgjsPath1176" d="M0 0L163.8636363636357 0L163.8636363636357 70L0 70Z " stroke="rgba(50,50,50,1)" stroke-width="2" fill-opacity="1" fill="#ffffff"></path><g id="SvgjsG1177"><text id="SvgjsText1178" font-family="微软雅黑" text-anchor="middle" font-size="13px" width="144px" fill="#323232" font-weight="400" align="middle" lineHeight="125%" font-style="" opacity="1" y="24.375" transform="rotate(0)"><tspan id="SvgjsTspan1179" dy="16" x="82"><tspan id="SvgjsTspan1180" style="text-decoration:;">GeneratorSequence</tspan></tspan></text></g></g><g id="SvgjsG1181"><path id="SvgjsPath1182" d="M214.77982954545564 1194.196022727265L214.77982954545564 1213.3096590909013L386.4843750000002 1213.3096590909013L386.4843750000002 1229.8232954545379 " stroke="#323232" stroke-width="2" fill="none" marker-end="url(#SvgjsMarker1183)"></path></g><g id="SvgjsG1185"><path id="SvgjsPath1186" d="M386.4843750000002 1304.4232954545378L386.4843750000002 1333.4232954545378L75.00710227272862 1333.4232954545378L75.00710227272862 1307.0232954545377 " stroke="#323232" stroke-width="2" fill="none" marker-end="url(#SvgjsMarker1187)"></path></g><g id="SvgjsG1189"><path id="SvgjsPath1190" d="M386.4843750000002 1304.4232954545378L386.4843750000002 1333.4232954545378L214.77982954545547 1333.4232954545378L214.77982954545547 1307.0232954545377 " stroke="#323232" stroke-width="2" fill="none" marker-end="url(#SvgjsMarker1191)"></path></g></svg>